<svg xmlns="http://www.w3.org/2000/svg" width="0" height="0">

	<svg id="icon-chevron-left" viewBox="0 0 13 13">
		<style type="text/css">
			.st0{fill:#333;}
		</style>
		<polygon class="st0" points="9.2,1.6 8.5,0.8 3.5,5.8 3.5,5.8 2.8,6.5 3.5,7.2 8.5,12.2 9.2,11.4 4.2,6.5 "/>
	</svg>

	<svg id="icon-chevron-right" viewBox="0 0 13 13">
		<style type="text/css">
			.st0{fill:#333;}
		</style>
		<polygon class="st0" points="2.8,11.4 3.5,12.2 8.5,7.2 8.5,7.2 9.2,6.5 8.5,5.8 3.5,0.8 2.8,1.6 7.8,6.5 "/>
	</svg>

	<svg id="icon-discover" viewBox="0 0 19 19">
		<style type="text/css">
			.st0{fill:#333;}
		</style>
		<path class="st0" d="M18,7.6l-5.8-0.8L9.5,1.5L6.9,6.8L1,7.6l4.2,4.1l-1,5.8l5.2-2.7l5.2,2.7l-1-5.8L18,7.6L18,7.6z M9.5,13.2
			l-3.4,1.8l0.6-3.7L4.1,8.5L7.8,8l1.7-3.4L11.2,8l3.8,0.5l-2.7,2.7l0.6,3.7L9.5,13.2z"/>
	</svg>

	<svg id="icon-audio" viewBox="0 0 19 19">
		<style type="text/css">
			.st0{fill:#333;}
		</style>
		<path class="st0" d="M5.8,10.6H4.7V18h1.1c0.3,0,0.5-0.2,0.5-0.5v-6.4C6.3,10.8,6.1,10.6,5.8,10.6z"/>
		<path class="st0" d="M13.2,10.6c-0.3,0-0.5,0.2-0.5,0.5v6.4c0,0.3,0.2,0.5,0.5,0.5h1.1v-7.5H13.2z"/>
		<path class="st0" d="M18,9.5C18,4.8,14.2,1,9.5,1S1,4.8,1,9.5c0,1,0.2,2,0.5,2.9C1.1,13,1,13.6,1,14.3c0,1.9,1.4,3.4,3.2,3.7v-7.4
			c-0.5,0.1-1,0.3-1.5,0.5c-0.1-0.4-0.1-0.9-0.1-1.4c0-3.8,3.1-6.9,6.9-6.9s6.9,3.1,6.9,6.9c0,0.5,0,0.9-0.1,1.4
			c-0.4-0.3-0.9-0.5-1.5-0.5V18c1.8-0.3,3.2-1.8,3.2-3.7c0-0.7-0.2-1.3-0.5-1.9C17.9,11.5,18,10.5,18,9.5L18,9.5z"/>
	</svg>

	<svg id="icon-social" viewBox="0 0 19 19">
		<style type="text/css">
			.st0{fill:#333;}
		</style>
		<path class="st0" d="M4.2,1.1v16.9h12.6V1.1H4.2z M10.6,5.3c1.2,0,2.1,0.9,2.1,2.1s-0.9,2.1-2.1,2.1S8.5,8.6,8.5,7.4
			S9.4,5.3,10.6,5.3L10.6,5.3L10.6,5.3z M13.7,13.7H7.4v-1.1c0-1.2,0.9-2.1,2.1-2.1l0,0h2.1c1.2,0,2.1,0.9,2.1,2.1V13.7z"/>
		<path class="st0" d="M2.1,2.1h1.6v3.2H2.1V2.1z"/>
		<path class="st0" d="M2.1,6.3h1.6v3.2H2.1V6.3z"/>
		<path class="st0" d="M2.1,10.6h1.6v3.2H2.1V10.6z"/>
		<path class="st0" d="M2.1,14.8h1.6v3.2H2.1V14.8z"/>
	</svg>

	<svg id="icon-games" viewBox="0 0 19 19">
		<style type="text/css">
			.st0{fill:#333;}
		</style>
		<path class="st0" d="M8.4,10.1V8.9c0-0.2-0.1-0.3-0.3-0.3H6.4V7c0-0.2-0.1-0.3-0.3-0.3H5C4.8,6.7,4.7,6.8,4.7,7v1.7H3
			c-0.2,0-0.3,0.1-0.3,0.3v1.1c0,0.2,0.1,0.3,0.3,0.3h1.7V12c0,0.2,0.1,0.3,0.3,0.3h1.1c0.2,0,0.3-0.1,0.3-0.3v-1.7h1.7
			C8.3,10.3,8.4,10.2,8.4,10.1z M13.4,10.6c0-0.6-0.5-1.1-1.1-1.1c-0.6,0-1.1,0.5-1.1,1.1c0,0.6,0.5,1.1,1.1,1.1
			C12.9,11.8,13.4,11.3,13.4,10.6z M15.7,8.4c0-0.6-0.5-1.1-1.1-1.1c-0.6,0-1.1,0.5-1.1,1.1c0,0.6,0.5,1.1,1.1,1.1
			C15.2,9.5,15.7,9,15.7,8.4z M17.9,9.5c0,2.5-2,4.5-4.5,4.5c-1.1,0-2.2-0.4-3-1.1H8.5c-0.8,0.7-1.8,1.1-3,1.1c-2.5,0-4.5-2-4.5-4.5
			S3.1,5,5.6,5h7.9C15.9,5,17.9,7,17.9,9.5z"/>
	</svg>

	<svg id="icon-work" viewBox="0 0 19 19">
		<style type="text/css">
			.st0{fill:#333;}
		</style>
		<path class="st0" d="M17,5h-4.3V4c0-0.6-0.5-1.1-1.1-1.1H7.4C6.8,2.9,6.3,3.4,6.3,4v1H2C1.4,5,0.9,5.4,0.9,6l0,9.9
			C0.9,16.5,1.4,17,2,17h15c0.6,0,1.1-0.5,1.1-1.1l0-9.9C18.1,5.4,17.6,5,17,5z M7.4,4C7.4,4,7.4,4,7.4,4l4.3,0c0,0,0,0,0,0v1H7.4
			L7.4,4L7.4,4z M17,9h-2.1v1.5c0,0.3-0.2,0.5-0.5,0.5h-1.1c-0.3,0-0.5-0.2-0.5-0.5V9H6.3v1.5c0,0.3-0.2,0.5-0.5,0.5H4.7
			c-0.3,0-0.5-0.2-0.5-0.5V9H2V8h15V9z"/>
	</svg>

	<svg id="icon-paint" viewBox="0 0 19 19">
		<style type="text/css">
			.st0{fill:#333;}
		</style>
		<path class="st0" d="M17,3.9h-0.9V2.9c0-0.5-0.4-0.9-0.9-0.9H2C1.5,2,1.1,2.4,1.1,2.9v11.3c0,0.5,0.4,0.9,0.9,0.9h0.9v0.9
			c0,0.5,0.4,0.9,0.9,0.9H17c0.5,0,0.9-0.4,0.9-0.9V4.8C17.9,4.3,17.5,3.9,17,3.9z M2.9,4.8v9.4H2c0,0,0,0,0,0V2.9c0,0,0,0,0,0h13.1
			c0,0,0,0,0,0v0.9H3.9C3.4,3.9,2.9,4.3,2.9,4.8L2.9,4.8L2.9,4.8z M17,16.1C17,16.1,17,16.1,17,16.1l-13.1,0c0,0,0,0,0,0V4.8
			c0,0,0,0,0,0H17c0,0,0,0,0,0V16.1z"/>
		<path class="st0" d="M15.1,7.2c0,0.8-0.6,1.4-1.4,1.4s-1.4-0.6-1.4-1.4s0.6-1.4,1.4-1.4S15.1,6.4,15.1,7.2z"/>
		<path class="st0" d="M16.1,15.1H4.8v-1.9l3.3-5.6l3.8,4.7h0.9l3.3-2.8V15.1z"/>
	</svg>

	<svg id="icon-system" viewBox="0 0 19 19">
		<style type="text/css">
			.st0{fill:#333;}
		</style>
		<path class="st0" d="M1,2.1v14.9h17V2.1H1z M16.9,15.9H2.1V3.1h14.9V15.9z M15.9,4.2H3.1v10.6h12.8V4.2z M8.4,9.5H7.4v1.1H6.3v1.1
			H5.2v-1.1h1.1V9.5h1.1V8.4H6.3V7.4H5.2V6.3h1.1v1.1h1.1v1.1h1.1V9.5z M12.7,11.6H9.5v-1.1h3.2V11.6z"/>
	</svg>
</svg>